<?xml version="1.0" standalone="no"?>
<svg xmlns="http://www.w3.org/2000/svg" width="1120" height="550.875"><g transform="translate(70,20)"><g class="x axis" transform="translate(0,400)" fill="none" font-size="10" font-family="sans-serif" text-anchor="middle"><path class="domain" stroke="#000" d="M0.5,6V0.5H1000.5V6"/><g class="tick" opacity="1" transform="translate(107.84313725490198,0)"><line stroke="#000" y2="6"/><text fill="#000" y="9" dy="-0.5em" dx="-.8em" style="text-anchor: end;" transform="rotate(-90)">Bolivia (n=1)</text></g><g class="tick" opacity="1" transform="translate(303.921568627451,0)"><line stroke="#000" y2="6"/><text fill="#000" y="9" dy="-0.5em" dx="-.8em" style="text-anchor: end;" transform="rotate(-90)">Colombia (n=356)</text></g><g class="tick" opacity="1" transform="translate(500,0)"><line stroke="#000" y2="6"/><text fill="#000" y="9" dy="-0.5em" dx="-.8em" style="text-anchor: end;" transform="rotate(-90)">Costa Rica (n=66)</text></g><g class="tick" opacity="1" transform="translate(696.0784313725491,0)"><line stroke="#000" y2="6"/><text fill="#000" y="9" dy="-0.5em" dx="-.8em" style="text-anchor: end;" transform="rotate(-90)">Indonesia (n=88)</text></g><g class="tick" opacity="1" transform="translate(892.156862745098,0)"><line stroke="#000" y2="6"/><text fill="#000" y="9" dy="-0.5em" dx="-.8em" style="text-anchor: end;" transform="rotate(-90)">USA (n=67)</text></g></g><g class="y axis" fill="none" font-size="10" font-family="sans-serif" text-anchor="end"><path class="domain" stroke="#000" d="M-6,400.5H0.5V0.5H-6"/><g class="tick" opacity="1" transform="translate(0,400.5)"><line stroke="#000" x2="-6"/><text fill="#000" x="-9" dy="0.32em">0.55</text></g><g class="tick" opacity="1" transform="translate(0,356.0555555555556)"><line stroke="#000" x2="-6"/><text fill="#000" x="-9" dy="0.32em">0.60</text></g><g class="tick" opacity="1" transform="translate(0,311.61111111111114)"><line stroke="#000" x2="-6"/><text fill="#000" x="-9" dy="0.32em">0.65</text></g><g class="tick" opacity="1" transform="translate(0,267.16666666666674)"><line stroke="#000" x2="-6"/><text fill="#000" x="-9" dy="0.32em">0.70</text></g><g class="tick" opacity="1" transform="translate(0,222.72222222222226)"><line stroke="#000" x2="-6"/><text fill="#000" x="-9" dy="0.32em">0.75</text></g><g class="tick" opacity="1" transform="translate(0,178.27777777777777)"><line stroke="#000" x2="-6"/><text fill="#000" x="-9" dy="0.32em">0.80</text></g><g class="tick" opacity="1" transform="translate(0,133.83333333333337)"><line stroke="#000" x2="-6"/><text fill="#000" x="-9" dy="0.32em">0.85</text></g><g class="tick" opacity="1" transform="translate(0,89.38888888888886)"><line stroke="#000" x2="-6"/><text fill="#000" x="-9" dy="0.32em">0.90</text></g><g class="tick" opacity="1" transform="translate(0,44.944444444444514)"><line stroke="#000" x2="-6"/><text fill="#000" x="-9" dy="0.32em">0.95</text></g><g class="tick" opacity="1" transform="translate(0,0.5)"><line stroke="#000" x2="-6"/><text fill="#000" x="-9" dy="0.32em">1.00</text></g></g><text class="x label" text-anchor="middle" transform="translate(500,520.875)" style="font: 12px sans-serif;">Loc-name</text><text class="y label" text-anchor="middle" transform="translate(-50,200)rotate(-90)" style="font: 12px sans-serif;">pielou_evenness</text><line class="center" x1="303.921568627451" y1="118.91569715555556" x2="303.921568627451" y2="6.571916533333365" stroke-dasharray="2,2" stroke-width="1" stroke="black"/><line class="center" x1="107.84313725490198" y1="341.4728884444445" x2="107.84313725490198" y2="341.4728884444445" stroke-dasharray="2,2" stroke-width="1" stroke="black"/><line class="center" x1="892.156862745098" y1="41.22538382222223" x2="892.156862745098" y2="4.798798844444434" stroke-dasharray="2,2" stroke-width="1" stroke="black"/><line class="center" x1="696.0784313725491" y1="26.79230062222217" x2="696.0784313725491" y2="3.51767155555558" stroke-dasharray="2,2" stroke-width="1" stroke="black"/><line class="center" x1="500" y1="33.6692725333333" x2="500" y2="7.605536888888878" stroke-dasharray="2,2" stroke-width="1" stroke="black"/><g class="outlier" transform="translate(303.921568627451,0)"><circle r="4" stroke-width="1" stroke="black" stroke-opacity="0.3" fill="black" fill-opacity="0.33" cx="0" cy="394.8222038222223"/><circle r="4" stroke-width="1" stroke="black" stroke-opacity="0.3" fill="black" fill-opacity="0.33" cx="0" cy="347.8705108444445"/><circle r="4" stroke-width="1" stroke="black" stroke-opacity="0.3" fill="black" fill-opacity="0.33" cx="0" cy="323.4079768000001"/><circle r="4" stroke-width="1" stroke="black" stroke-opacity="0.3" fill="black" fill-opacity="0.33" cx="0" cy="322.32417804444447"/><circle r="4" stroke-width="1" stroke="black" stroke-opacity="0.3" fill="black" fill-opacity="0.33" cx="0" cy="263.1976684444445"/><circle r="4" stroke-width="1" stroke="black" stroke-opacity="0.3" fill="black" fill-opacity="0.33" cx="0" cy="254.47866417777786"/><circle r="4" stroke-width="1" stroke="black" stroke-opacity="0.3" fill="black" fill-opacity="0.33" cx="0" cy="243.9561935111111"/><circle r="4" stroke-width="1" stroke="black" stroke-opacity="0.3" fill="black" fill-opacity="0.33" cx="0" cy="238.52148080000006"/><circle r="4" stroke-width="1" stroke="black" stroke-opacity="0.3" fill="black" fill-opacity="0.33" cx="0" cy="227.2330741333334"/><circle r="4" stroke-width="1" stroke="black" stroke-opacity="0.3" fill="black" fill-opacity="0.33" cx="0" cy="226.76274204444448"/><circle r="4" stroke-width="1" stroke="black" stroke-opacity="0.3" fill="black" fill-opacity="0.33" cx="0" cy="220.6264482666667"/><circle r="4" stroke-width="1" stroke="black" stroke-opacity="0.3" fill="black" fill-opacity="0.33" cx="0" cy="219.90175368888893"/><circle r="4" stroke-width="1" stroke="black" stroke-opacity="0.3" fill="black" fill-opacity="0.33" cx="0" cy="217.5387716444445"/><circle r="4" stroke-width="1" stroke="black" stroke-opacity="0.3" fill="black" fill-opacity="0.33" cx="0" cy="216.8848026666667"/><circle r="4" stroke-width="1" stroke="black" stroke-opacity="0.3" fill="black" fill-opacity="0.33" cx="0" cy="211.30834480000004"/><circle r="4" stroke-width="1" stroke="black" stroke-opacity="0.3" fill="black" fill-opacity="0.33" cx="0" cy="208.38330417777783"/><circle r="4" stroke-width="1" stroke="black" stroke-opacity="0.3" fill="black" fill-opacity="0.33" cx="0" cy="196.14322471111115"/><circle r="4" stroke-width="1" stroke="black" stroke-opacity="0.3" fill="black" fill-opacity="0.33" cx="0" cy="188.51616737777786"/><circle r="4" stroke-width="1" stroke="black" stroke-opacity="0.3" fill="black" fill-opacity="0.33" cx="0" cy="175.20954515555562"/><circle r="4" stroke-width="1" stroke="black" stroke-opacity="0.3" fill="black" fill-opacity="0.33" cx="0" cy="172.28162400000002"/><circle r="4" stroke-width="1" stroke="black" stroke-opacity="0.3" fill="black" fill-opacity="0.33" cx="0" cy="164.8726686222222"/><circle r="4" stroke-width="1" stroke="black" stroke-opacity="0.3" fill="black" fill-opacity="0.33" cx="0" cy="163.9617961777778"/><circle r="4" stroke-width="1" stroke="black" stroke-opacity="0.3" fill="black" fill-opacity="0.33" cx="0" cy="163.00318097777776"/><circle r="4" stroke-width="1" stroke="black" stroke-opacity="0.3" fill="black" fill-opacity="0.33" cx="0" cy="161.04711404444444"/><circle r="4" stroke-width="1" stroke="black" stroke-opacity="0.3" fill="black" fill-opacity="0.33" cx="0" cy="155.36800551111116"/><circle r="4" stroke-width="1" stroke="black" stroke-opacity="0.3" fill="black" fill-opacity="0.33" cx="0" cy="155.21073564444444"/><circle r="4" stroke-width="1" stroke="black" stroke-opacity="0.3" fill="black" fill-opacity="0.33" cx="0" cy="151.09238648888893"/><circle r="4" stroke-width="1" stroke="black" stroke-opacity="0.3" fill="black" fill-opacity="0.33" cx="0" cy="149.6968552888889"/><circle r="4" stroke-width="1" stroke="black" stroke-opacity="0.3" fill="black" fill-opacity="0.33" cx="0" cy="146.6494989333333"/><circle r="4" stroke-width="1" stroke="black" stroke-opacity="0.3" fill="black" fill-opacity="0.33" cx="0" cy="143.36974960000003"/><circle r="4" stroke-width="1" stroke="black" stroke-opacity="0.3" fill="black" fill-opacity="0.33" cx="0" cy="138.6550200000001"/><circle r="4" stroke-width="1" stroke="black" stroke-opacity="0.3" fill="black" fill-opacity="0.33" cx="0" cy="138.4677371555556"/><circle r="4" stroke-width="1" stroke="black" stroke-opacity="0.3" fill="black" fill-opacity="0.33" cx="0" cy="137.7935914666666"/><circle r="4" stroke-width="1" stroke="black" stroke-opacity="0.3" fill="black" fill-opacity="0.33" cx="0" cy="137.14034097777778"/><circle r="4" stroke-width="1" stroke="black" stroke-opacity="0.3" fill="black" fill-opacity="0.33" cx="0" cy="135.7019577777778"/><circle r="4" stroke-width="1" stroke="black" stroke-opacity="0.3" fill="black" fill-opacity="0.33" cx="0" cy="135.1506133333333"/><circle r="4" stroke-width="1" stroke="black" stroke-opacity="0.3" fill="black" fill-opacity="0.33" cx="0" cy="131.3286249777778"/><circle r="4" stroke-width="1" stroke="black" stroke-opacity="0.3" fill="black" fill-opacity="0.33" cx="0" cy="128.45727031111113"/><circle r="4" stroke-width="1" stroke="black" stroke-opacity="0.3" fill="black" fill-opacity="0.33" cx="0" cy="126.11001920000001"/><circle r="4" stroke-width="1" stroke="black" stroke-opacity="0.3" fill="black" fill-opacity="0.33" cx="0" cy="123.81768124444443"/></g><g class="outlier" transform="translate(107.84313725490198,0)"/><g class="outlier" transform="translate(892.156862745098,0)"><circle r="4" stroke-width="1" stroke="black" stroke-opacity="0.3" fill="black" fill-opacity="0.33" cx="0" cy="159.71711262222223"/><circle r="4" stroke-width="1" stroke="black" stroke-opacity="0.3" fill="black" fill-opacity="0.33" cx="0" cy="105.26050115555552"/><circle r="4" stroke-width="1" stroke="black" stroke-opacity="0.3" fill="black" fill-opacity="0.33" cx="0" cy="53.76265351111107"/><circle r="4" stroke-width="1" stroke="black" stroke-opacity="0.3" fill="black" fill-opacity="0.33" cx="0" cy="47.3901806222222"/></g><g class="outlier" transform="translate(696.0784313725491,0)"><circle r="4" stroke-width="1" stroke="black" stroke-opacity="0.3" fill="black" fill-opacity="0.33" cx="0" cy="59.98965039999996"/><circle r="4" stroke-width="1" stroke="black" stroke-opacity="0.3" fill="black" fill-opacity="0.33" cx="0" cy="55.90902986666663"/><circle r="4" stroke-width="1" stroke="black" stroke-opacity="0.3" fill="black" fill-opacity="0.33" cx="0" cy="43.03841288888884"/><circle r="4" stroke-width="1" stroke="black" stroke-opacity="0.3" fill="black" fill-opacity="0.33" cx="0" cy="42.13796773333331"/><circle r="4" stroke-width="1" stroke="black" stroke-opacity="0.3" fill="black" fill-opacity="0.33" cx="0" cy="36.84833911111116"/></g><g class="outlier" transform="translate(500,0)"><circle r="4" stroke-width="1" stroke="black" stroke-opacity="0.3" fill="black" fill-opacity="0.33" cx="0" cy="44.58633511111111"/><circle r="4" stroke-width="1" stroke="black" stroke-opacity="0.3" fill="black" fill-opacity="0.33" cx="0" cy="38.69886960000002"/></g><rect class="box" x="215.68627450980392" y="19.531733244444354" width="176.47058823529412" height="41.535479955555616" fill="white" stroke-width="1" stroke="black"/><rect class="box" x="19.607843137254918" y="341.4728884444445" width="176.47058823529412" height="0" fill="white" stroke-width="1" stroke="black"/><rect class="box" x="803.9215686274509" y="11.27559524444439" width="176.47058823529412" height="12.895073377777862" fill="white" stroke-width="1" stroke="black"/><rect class="box" x="607.843137254902" y="8.686599022222197" width="176.47058823529412" height="7.250074177777833" fill="white" stroke-width="1" stroke="black"/><rect class="box" x="411.7647058823529" y="12.688624600000082" width="176.47058823529412" height="9.178444022222095" fill="white" stroke-width="1" stroke="black"/><line class="median" x1="215.68627450980392" y1="30.72489924444443" x2="392.156862745098" y2="30.72489924444443" stroke-width="1" stroke="black"/><line class="median" x1="19.607843137254918" y1="341.4728884444445" x2="196.07843137254903" y2="341.4728884444445" stroke-width="1" stroke="black"/><line class="median" x1="803.9215686274509" y1="15.68304622222223" x2="980.3921568627451" y2="15.68304622222223" stroke-width="1" stroke="black"/><line class="median" x1="607.843137254902" y1="11.476595422222204" x2="784.3137254901961" y2="11.476595422222204" stroke-width="1" stroke="black"/><line class="median" x1="411.7647058823529" y1="17.59335951111109" x2="588.2352941176471" y2="17.59335951111109" stroke-width="1" stroke="black"/><g class="whisker" transform="translate(259.80392156862746,0)"><line class="median" x1="0" y1="118.91569715555556" x2="88.23529411764706" y2="118.91569715555556" stroke-width="1" stroke="black"/><line class="median" x1="0" y1="6.571916533333365" x2="88.23529411764706" y2="6.571916533333365" stroke-width="1" stroke="black"/></g><g class="whisker" transform="translate(63.72549019607845,0)"><line class="median" x1="0" y1="341.4728884444445" x2="88.23529411764706" y2="341.4728884444445" stroke-width="1" stroke="black"/><line class="median" x1="0" y1="341.4728884444445" x2="88.23529411764706" y2="341.4728884444445" stroke-width="1" stroke="black"/></g><g class="whisker" transform="translate(848.0392156862745,0)"><line class="median" x1="0" y1="41.22538382222223" x2="88.23529411764706" y2="41.22538382222223" stroke-width="1" stroke="black"/><line class="median" x1="0" y1="4.798798844444434" x2="88.23529411764706" y2="4.798798844444434" stroke-width="1" stroke="black"/></g><g class="whisker" transform="translate(651.9607843137255,0)"><line class="median" x1="0" y1="26.79230062222217" x2="88.23529411764706" y2="26.79230062222217" stroke-width="1" stroke="black"/><line class="median" x1="0" y1="3.51767155555558" x2="88.23529411764706" y2="3.51767155555558" stroke-width="1" stroke="black"/></g><g class="whisker" transform="translate(455.88235294117646,0)"><line class="median" x1="0" y1="33.6692725333333" x2="88.23529411764706" y2="33.6692725333333" stroke-width="1" stroke="black"/><line class="median" x1="0" y1="7.605536888888878" x2="88.23529411764706" y2="7.605536888888878" stroke-width="1" stroke="black"/></g></g></svg>