<?xml version="1.0" standalone="no"?>
<svg xmlns="http://www.w3.org/2000/svg" width="1120" height="551.4250030517578"><g transform="translate(70,20)"><g class="x axis" transform="translate(0,400)" fill="none" font-size="10" font-family="sans-serif" text-anchor="middle"><path class="domain" stroke="#000" d="M0.5,6V0.5H1000.5V6"/><g class="tick" opacity="1" transform="translate(134.1463414634146,0)"><line stroke="#000" y2="6"/><text fill="#000" y="9" dy="-0.5em" dx="-.8em" style="text-anchor: end;" transform="rotate(-90)">Colombia (n=351)</text></g><g class="tick" opacity="1" transform="translate(378.04878048780483,0)"><line stroke="#000" y2="6"/><text fill="#000" y="9" dy="-0.5em" dx="-.8em" style="text-anchor: end;" transform="rotate(-90)">Costa-Rica (n=65)</text></g><g class="tick" opacity="1" transform="translate(621.9512195121952,0)"><line stroke="#000" y2="6"/><text fill="#000" y="9" dy="-0.5em" dx="-.8em" style="text-anchor: end;" transform="rotate(-90)">Indonesia (n=88)</text></g><g class="tick" opacity="1" transform="translate(865.8536585365853,0)"><line stroke="#000" y2="6"/><text fill="#000" y="9" dy="-0.5em" dx="-.8em" style="text-anchor: end;" transform="rotate(-90)">USA (n=66)</text></g></g><g class="y axis" fill="none" font-size="10" font-family="sans-serif" text-anchor="end"><path class="domain" stroke="#000" d="M-6,400.5H0.5V0.5H-6"/><g class="tick" opacity="1" transform="translate(0,400.5)"><line stroke="#000" x2="-6"/><text fill="#000" x="-9" dy="0.32em">10</text></g><g class="tick" opacity="1" transform="translate(0,356.05555555555554)"><line stroke="#000" x2="-6"/><text fill="#000" x="-9" dy="0.32em">12</text></g><g class="tick" opacity="1" transform="translate(0,311.6111111111111)"><line stroke="#000" x2="-6"/><text fill="#000" x="-9" dy="0.32em">14</text></g><g class="tick" opacity="1" transform="translate(0,267.1666666666667)"><line stroke="#000" x2="-6"/><text fill="#000" x="-9" dy="0.32em">16</text></g><g class="tick" opacity="1" transform="translate(0,222.72222222222223)"><line stroke="#000" x2="-6"/><text fill="#000" x="-9" dy="0.32em">18</text></g><g class="tick" opacity="1" transform="translate(0,178.27777777777777)"><line stroke="#000" x2="-6"/><text fill="#000" x="-9" dy="0.32em">20</text></g><g class="tick" opacity="1" transform="translate(0,133.83333333333337)"><line stroke="#000" x2="-6"/><text fill="#000" x="-9" dy="0.32em">22</text></g><g class="tick" opacity="1" transform="translate(0,89.38888888888886)"><line stroke="#000" x2="-6"/><text fill="#000" x="-9" dy="0.32em">24</text></g><g class="tick" opacity="1" transform="translate(0,44.94444444444446)"><line stroke="#000" x2="-6"/><text fill="#000" x="-9" dy="0.32em">26</text></g><g class="tick" opacity="1" transform="translate(0,0.5)"><line stroke="#000" x2="-6"/><text fill="#000" x="-9" dy="0.32em">28</text></g></g><text class="x label" text-anchor="middle" transform="translate(500,521.4250030517578)" style="font: 12px sans-serif;">Loc-name</text><text class="y label" text-anchor="middle" transform="translate(-50,200)rotate(-90)" style="font: 12px sans-serif;">faith_pd</text><g class="outlier" transform="translate(134.1463414634146,0)"><circle r="4" stroke-width="1" stroke="black" stroke-opacity="0.3" fill="black" fill-opacity="0.33" cx="0" cy="375.91330217555554"/><circle r="4" stroke-width="1" stroke="black" stroke-opacity="0.3" fill="black" fill-opacity="0.33" cx="0" cy="17.70400584666669"/></g><g class="outlier" transform="translate(378.04878048780483,0)"><circle r="4" stroke-width="1" stroke="black" stroke-opacity="0.3" fill="black" fill-opacity="0.33" cx="0" cy="235.67561447111106"/><circle r="4" stroke-width="1" stroke="black" stroke-opacity="0.3" fill="black" fill-opacity="0.33" cx="0" cy="90.92472924222221"/><circle r="4" stroke-width="1" stroke="black" stroke-opacity="0.3" fill="black" fill-opacity="0.33" cx="0" cy="89.84093738888885"/></g><g class="outlier" transform="translate(621.9512195121952,0)"/><line class="center" x1="134.1463414634146" y1="370.84943946444446" x2="134.1463414634146" y2="69.48515593555555" stroke-dasharray="2,2" stroke-width="1" stroke="black"/><line class="center" x1="378.04878048780483" y1="205.79542255999996" x2="378.04878048780483" y2="101.3850578422223" stroke-dasharray="2,2" stroke-width="1" stroke="black"/><line class="center" x1="621.9512195121952" y1="204.6724680733333" x2="621.9512195121952" y2="48.336588511111074" stroke-dasharray="2,2" stroke-width="1" stroke="black"/><line class="center" x1="865.8536585365853" y1="219.94240413777777" x2="865.8536585365853" y2="103.8998409022222" stroke-dasharray="2,2" stroke-width="1" stroke="black"/><g class="outlier" transform="translate(865.8536585365853,0)"/><rect class="box" x="24.390243902438954" y="163.1547941788889" width="219.51219512195127" height="84.99756179777779" fill="white" stroke-width="1" stroke="black"/><rect class="box" x="268.29268292682923" y="144.00440151777775" width="219.51219512195127" height="32.04380354666668" fill="white" stroke-width="1" stroke="black"/><rect class="box" x="512.1951219512196" y="93.8449655922222" width="219.51219512195127" height="45.396893675555646" fill="white" stroke-width="1" stroke="black"/><rect class="box" x="756.0975609756097" y="149.38029705055555" width="219.51219512195127" height="30.607439379999988" fill="white" stroke-width="1" stroke="black"/><line class="median" x1="24.390243902438954" y1="200.1401570333333" x2="243.90243902439022" y2="200.1401570333333" stroke-width="1" stroke="black"/><line class="median" x1="268.29268292682923" y1="161.32592298222224" x2="487.8048780487805" y2="161.32592298222224" stroke-width="1" stroke="black"/><line class="median" x1="512.1951219512196" y1="113.59790745333333" x2="731.7073170731708" y2="113.59790745333333" stroke-width="1" stroke="black"/><line class="median" x1="756.0975609756097" y1="164.6775588" x2="975.6097560975609" y2="164.6775588" stroke-width="1" stroke="black"/><g class="whisker" transform="translate(79.26829268292677,0)"><line class="median" x1="0" y1="370.84943946444446" x2="109.75609756097563" y2="370.84943946444446" stroke-width="1" stroke="black"/><line class="median" x1="0" y1="69.48515593555555" x2="109.75609756097563" y2="69.48515593555555" stroke-width="1" stroke="black"/></g><g class="whisker" transform="translate(323.17073170731703,0)"><line class="median" x1="0" y1="205.79542255999996" x2="109.75609756097563" y2="205.79542255999996" stroke-width="1" stroke="black"/><line class="median" x1="0" y1="101.3850578422223" x2="109.75609756097563" y2="101.3850578422223" stroke-width="1" stroke="black"/></g><g class="whisker" transform="translate(567.0731707317074,0)"><line class="median" x1="0" y1="204.6724680733333" x2="109.75609756097563" y2="204.6724680733333" stroke-width="1" stroke="black"/><line class="median" x1="0" y1="48.336588511111074" x2="109.75609756097563" y2="48.336588511111074" stroke-width="1" stroke="black"/></g><g class="whisker" transform="translate(810.9756097560975,0)"><line class="median" x1="0" y1="219.94240413777777" x2="109.75609756097563" y2="219.94240413777777" stroke-width="1" stroke="black"/><line class="median" x1="0" y1="103.8998409022222" x2="109.75609756097563" y2="103.8998409022222" stroke-width="1" stroke="black"/></g></g></svg>