<?xml version="1.0" standalone="no"?>
<svg xmlns="http://www.w3.org/2000/svg" width="1120" height="550.875"><g transform="translate(70,20)"><g class="x axis" transform="translate(0,400)" fill="none" font-size="10" font-family="sans-serif" text-anchor="middle"><path class="domain" stroke="#000" d="M0.5,6V0.5H1000.5V6"/><g class="tick" opacity="1" transform="translate(107.84313725490198,0)"><line stroke="#000" y2="6"/><text fill="#000" y="9" dy="-0.5em" dx="-.8em" style="text-anchor: end;" transform="rotate(-90)">Bolivia (n=1)</text></g><g class="tick" opacity="1" transform="translate(303.921568627451,0)"><line stroke="#000" y2="6"/><text fill="#000" y="9" dy="-0.5em" dx="-.8em" style="text-anchor: end;" transform="rotate(-90)">Colombia (n=356)</text></g><g class="tick" opacity="1" transform="translate(500,0)"><line stroke="#000" y2="6"/><text fill="#000" y="9" dy="-0.5em" dx="-.8em" style="text-anchor: end;" transform="rotate(-90)">Costa Rica (n=66)</text></g><g class="tick" opacity="1" transform="translate(696.0784313725491,0)"><line stroke="#000" y2="6"/><text fill="#000" y="9" dy="-0.5em" dx="-.8em" style="text-anchor: end;" transform="rotate(-90)">Indonesia (n=88)</text></g><g class="tick" opacity="1" transform="translate(892.156862745098,0)"><line stroke="#000" y2="6"/><text fill="#000" y="9" dy="-0.5em" dx="-.8em" style="text-anchor: end;" transform="rotate(-90)">USA (n=67)</text></g></g><g class="y axis" fill="none" font-size="10" font-family="sans-serif" text-anchor="end"><path class="domain" stroke="#000" d="M-6,400.5H0.5V0.5H-6"/><g class="tick" opacity="1" transform="translate(0,400.5)"><line stroke="#000" x2="-6"/><text fill="#000" x="-9" dy="0.32em">4</text></g><g class="tick" opacity="1" transform="translate(0,356.05555555555554)"><line stroke="#000" x2="-6"/><text fill="#000" x="-9" dy="0.32em">6</text></g><g class="tick" opacity="1" transform="translate(0,311.6111111111111)"><line stroke="#000" x2="-6"/><text fill="#000" x="-9" dy="0.32em">8</text></g><g class="tick" opacity="1" transform="translate(0,267.1666666666667)"><line stroke="#000" x2="-6"/><text fill="#000" x="-9" dy="0.32em">10</text></g><g class="tick" opacity="1" transform="translate(0,222.72222222222223)"><line stroke="#000" x2="-6"/><text fill="#000" x="-9" dy="0.32em">12</text></g><g class="tick" opacity="1" transform="translate(0,178.27777777777777)"><line stroke="#000" x2="-6"/><text fill="#000" x="-9" dy="0.32em">14</text></g><g class="tick" opacity="1" transform="translate(0,133.83333333333337)"><line stroke="#000" x2="-6"/><text fill="#000" x="-9" dy="0.32em">16</text></g><g class="tick" opacity="1" transform="translate(0,89.38888888888886)"><line stroke="#000" x2="-6"/><text fill="#000" x="-9" dy="0.32em">18</text></g><g class="tick" opacity="1" transform="translate(0,44.94444444444446)"><line stroke="#000" x2="-6"/><text fill="#000" x="-9" dy="0.32em">20</text></g><g class="tick" opacity="1" transform="translate(0,0.5)"><line stroke="#000" x2="-6"/><text fill="#000" x="-9" dy="0.32em">22</text></g></g><text class="x label" text-anchor="middle" transform="translate(500,520.875)" style="font: 12px sans-serif;">Loc-name</text><text class="y label" text-anchor="middle" transform="translate(-50,200)rotate(-90)" style="font: 12px sans-serif;">faith_pd</text><line class="center" x1="303.921568627451" y1="360.65601654222223" x2="303.921568627451" y2="78.73210716444441" stroke-dasharray="2,2" stroke-width="1" stroke="black"/><line class="center" x1="107.84313725490198" y1="341.39218448" x2="107.84313725490198" y2="341.39218448" stroke-dasharray="2,2" stroke-width="1" stroke="black"/><line class="center" x1="892.156862745098" y1="249.99763168222222" x2="892.156862745098" y2="120.26850164666666" stroke-dasharray="2,2" stroke-width="1" stroke="black"/><line class="center" x1="696.0784313725491" y1="199.19411580444444" x2="696.0784313725491" y2="41.235173857777795" stroke-dasharray="2,2" stroke-width="1" stroke="black"/><line class="center" x1="500" y1="242.78509399111113" x2="500" y2="116.98828765555555" stroke-dasharray="2,2" stroke-width="1" stroke="black"/><g class="outlier" transform="translate(303.921568627451,0)"><circle r="4" stroke-width="1" stroke="black" stroke-opacity="0.3" fill="black" fill-opacity="0.33" cx="0" cy="381.65092368222224"/><circle r="4" stroke-width="1" stroke="black" stroke-opacity="0.3" fill="black" fill-opacity="0.33" cx="0" cy="376.7914112533333"/><circle r="4" stroke-width="1" stroke="black" stroke-opacity="0.3" fill="black" fill-opacity="0.33" cx="0" cy="365.9968451311111"/><circle r="4" stroke-width="1" stroke="black" stroke-opacity="0.3" fill="black" fill-opacity="0.33" cx="0" cy="5.722166893333338"/></g><g class="outlier" transform="translate(107.84313725490198,0)"/><g class="outlier" transform="translate(500,0)"><circle r="4" stroke-width="1" stroke="black" stroke-opacity="0.3" fill="black" fill-opacity="0.33" cx="0" cy="111.64066891333329"/><circle r="4" stroke-width="1" stroke="black" stroke-opacity="0.3" fill="black" fill-opacity="0.33" cx="0" cy="106.27413210888892"/><circle r="4" stroke-width="1" stroke="black" stroke-opacity="0.3" fill="black" fill-opacity="0.33" cx="0" cy="100.68317794444448"/></g><rect class="box" x="215.68627450980392" y="163.680794565" width="176.47058823529412" height="79.01484658499999" fill="white" stroke-width="1" stroke="black"/><rect class="box" x="19.607843137254918" y="341.39218448" width="176.47058823529412" height="0" fill="white" stroke-width="1" stroke="black"/><rect class="box" x="803.9215686274509" y="158.50845609222222" width="176.47058823529412" height="40.81097502" fill="white" stroke-width="1" stroke="black"/><rect class="box" x="607.843137254902" y="81.75919556833327" width="176.47058823529412" height="49.47012213111117" fill="white" stroke-width="1" stroke="black"/><rect class="box" x="411.7647058823529" y="165.58567119444442" width="176.47058823529412" height="33.609311872222236" fill="white" stroke-width="1" stroke="black"/><line class="median" x1="215.68627450980392" y1="199.85916440666665" x2="392.156862745098" y2="199.85916440666665" stroke-width="1" stroke="black"/><line class="median" x1="19.607843137254918" y1="341.39218448" x2="196.07843137254903" y2="341.39218448" stroke-width="1" stroke="black"/><line class="median" x1="803.9215686274509" y1="180.6817717688889" x2="980.3921568627451" y2="180.6817717688889" stroke-width="1" stroke="black"/><line class="median" x1="607.843137254902" y1="108.42195467222223" x2="784.3137254901961" y2="108.42195467222223" stroke-width="1" stroke="black"/><line class="median" x1="411.7647058823529" y1="182.2656547077778" x2="588.2352941176471" y2="182.2656547077778" stroke-width="1" stroke="black"/><g class="whisker" transform="translate(259.80392156862746,0)"><line class="median" x1="0" y1="360.65601654222223" x2="88.23529411764706" y2="360.65601654222223" stroke-width="1" stroke="black"/><line class="median" x1="0" y1="78.73210716444441" x2="88.23529411764706" y2="78.73210716444441" stroke-width="1" stroke="black"/></g><g class="whisker" transform="translate(63.72549019607845,0)"><line class="median" x1="0" y1="341.39218448" x2="88.23529411764706" y2="341.39218448" stroke-width="1" stroke="black"/><line class="median" x1="0" y1="341.39218448" x2="88.23529411764706" y2="341.39218448" stroke-width="1" stroke="black"/></g><g class="whisker" transform="translate(848.0392156862745,0)"><line class="median" x1="0" y1="249.99763168222222" x2="88.23529411764706" y2="249.99763168222222" stroke-width="1" stroke="black"/><line class="median" x1="0" y1="120.26850164666666" x2="88.23529411764706" y2="120.26850164666666" stroke-width="1" stroke="black"/></g><g class="whisker" transform="translate(651.9607843137255,0)"><line class="median" x1="0" y1="199.19411580444444" x2="88.23529411764706" y2="199.19411580444444" stroke-width="1" stroke="black"/><line class="median" x1="0" y1="41.235173857777795" x2="88.23529411764706" y2="41.235173857777795" stroke-width="1" stroke="black"/></g><g class="whisker" transform="translate(455.88235294117646,0)"><line class="median" x1="0" y1="242.78509399111113" x2="88.23529411764706" y2="242.78509399111113" stroke-width="1" stroke="black"/><line class="median" x1="0" y1="116.98828765555555" x2="88.23529411764706" y2="116.98828765555555" stroke-width="1" stroke="black"/></g><g class="outlier" transform="translate(696.0784313725491,0)"/><g class="outlier" transform="translate(892.156862745098,0)"/></g></svg>